<mxfile host="Electron" agent="Mozilla/5.0 (Macintosh; Intel Mac OS X 10_15_7) AppleWebKit/537.36 (KHTML, like Gecko) draw.io/28.0.6 Chrome/138.0.7204.100 Electron/37.2.3 Safari/537.36" version="28.0.6">
  <diagram name="Page-1" id="epYKt0lnTmgydSMSopUD">
    <mxGraphModel dx="1376" dy="911" grid="1" gridSize="10" guides="1" tooltips="1" connect="1" arrows="0" fold="1" page="1" pageScale="1" pageWidth="827" pageHeight="1169" math="0" shadow="0">
      <root>
        <mxCell id="0" />
        <mxCell id="1" parent="0" />
        <mxCell id="4k1SgF24hwj7LHfagTBf-59" value="&lt;font style=&quot;font-size: 15px; color: rgb(151, 208, 119);&quot;&gt;限價&amp;nbsp; 賣 單列&lt;/font&gt;&lt;div&gt;&lt;font style=&quot;font-size: 15px; color: rgb(151, 208, 119);&quot;&gt;TreeMap&amp;lt;Price,OrderList&amp;gt;&lt;/font&gt;&lt;/div&gt;&lt;div&gt;&lt;font style=&quot;font-size: 15px; color: rgb(151, 208, 119);&quot;&gt;價格從低到高排列&lt;/font&gt;&lt;/div&gt;" style="strokeWidth=2;html=1;shape=mxgraph.flowchart.direct_data;whiteSpace=wrap;" parent="1" vertex="1">
          <mxGeometry x="51.25" y="390" width="260" height="80" as="geometry" />
        </mxCell>
        <mxCell id="4k1SgF24hwj7LHfagTBf-60" value="&lt;font style=&quot;font-size: 15px; color: rgb(126, 166, 224);&quot;&gt;限價 買 單列&lt;/font&gt;&lt;div&gt;&lt;div&gt;&lt;font style=&quot;font-size: 15px; color: rgb(126, 166, 224);&quot;&gt;TreeMap&amp;lt;Price,OrderList&amp;gt;&lt;/font&gt;&lt;/div&gt;&lt;/div&gt;&lt;div&gt;&lt;font style=&quot;font-size: 15px; color: rgb(126, 166, 224);&quot;&gt;價格從高到低排列&lt;/font&gt;&lt;/div&gt;&lt;div&gt;&lt;br&gt;&lt;/div&gt;" style="strokeWidth=2;html=1;shape=mxgraph.flowchart.direct_data;whiteSpace=wrap;" parent="1" vertex="1">
          <mxGeometry x="935" y="380" width="270" height="90" as="geometry" />
        </mxCell>
        <mxCell id="4k1SgF24hwj7LHfagTBf-62" value="&lt;font style=&quot;font-size: 15px; color: rgb(126, 166, 224);&quot;&gt;限價 買 單下單&lt;/font&gt;" style="rounded=0;whiteSpace=wrap;html=1;" parent="1" vertex="1">
          <mxGeometry x="120" y="50" width="120" height="60" as="geometry" />
        </mxCell>
        <mxCell id="4k1SgF24hwj7LHfagTBf-63" value="&lt;font style=&quot;font-size: 15px; color: rgb(151, 208, 119);&quot;&gt;限價 賣 單下單&lt;/font&gt;" style="rounded=0;whiteSpace=wrap;html=1;" parent="1" vertex="1">
          <mxGeometry x="1010" y="50" width="120" height="60" as="geometry" />
        </mxCell>
        <mxCell id="4k1SgF24hwj7LHfagTBf-64" value="&lt;font style=&quot;color: rgb(151, 208, 119);&quot;&gt;&lt;span style=&quot;font-size: 15px; text-wrap-mode: wrap; background-color: rgb(27, 29, 30);&quot;&gt;限價 賣 單&amp;nbsp;&lt;/span&gt;&lt;span style=&quot;font-size: 15px;&quot;&gt;進到買單隊列撮合&lt;/span&gt;&lt;/font&gt;" style="endArrow=classic;html=1;rounded=0;exitX=0.5;exitY=1;exitDx=0;exitDy=0;fillColor=#60a917;strokeColor=#2D7600;strokeWidth=3;entryX=0.5;entryY=0;entryDx=0;entryDy=0;entryPerimeter=0;" parent="1" source="4k1SgF24hwj7LHfagTBf-169" target="4k1SgF24hwj7LHfagTBf-60" edge="1">
          <mxGeometry width="50" height="50" relative="1" as="geometry">
            <mxPoint x="530" y="190" as="sourcePoint" />
            <mxPoint x="910" y="280" as="targetPoint" />
          </mxGeometry>
        </mxCell>
        <mxCell id="4k1SgF24hwj7LHfagTBf-129" value="OrderDetail 訂單交易明細" style="swimlane;fontStyle=0;childLayout=stackLayout;horizontal=1;startSize=30;horizontalStack=0;resizeParent=1;resizeParentMax=0;resizeLast=0;collapsible=1;marginBottom=0;whiteSpace=wrap;html=1;" parent="1" vertex="1">
          <mxGeometry x="1350" y="50" width="710" height="330" as="geometry" />
        </mxCell>
        <mxCell id="4k1SgF24hwj7LHfagTBf-132" value="&lt;div style=&quot;background-color:#1e1f22;color:#bcbec4&quot;&gt;&lt;pre style=&quot;font-family:&#39;JetBrains Mono&#39;,monospace;font-size:9.8pt;&quot;&gt;ID             &lt;span style=&quot;color:#cc7832;&quot;&gt;int64                       &lt;/span&gt;ID&lt;br&gt;OrderId        string                      &lt;span style=&quot;font-family:&#39;Menlo-Regular&#39;,monospace;&quot;&gt;訂單號&lt;br&gt;&lt;/span&gt;MemberId       int64                       &lt;span style=&quot;font-family:&#39;Menlo-Regular&#39;,monospace;&quot;&gt;會員&lt;/span&gt;ID&lt;br&gt;EventType      enum.EventType              &lt;span style=&quot;font-family:&#39;Menlo-Regular&#39;,monospace;&quot;&gt;事件類型&lt;/span&gt;(CREATE, TRADE, CANCEL, AMEND, EXPIRE)&lt;br&gt;Symbol         enum.Symbol                 &lt;span style=&quot;font-family:&#39;Menlo-Regular&#39;,monospace;&quot;&gt;交易符號&lt;br&gt;&lt;/span&gt;Direction      enum.ExchangeOrderDirection &lt;span style=&quot;font-family:&#39;Menlo-Regular&#39;,monospace;&quot;&gt;訂單方向 &lt;/span&gt;BUY/SELL&lt;br&gt;Type           enum.ExchangeOrderType      &lt;span style=&quot;font-family:&#39;Menlo-Regular&#39;,monospace;&quot;&gt;訂單類型 &lt;/span&gt;LIMIT/MARKET&lt;br&gt;Price          decimal.Decimal             &lt;span style=&quot;font-family:&#39;Menlo-Regular&#39;,monospace;&quot;&gt;下單價&lt;br&gt;&lt;/span&gt;Amount         decimal.Decimal             &lt;span style=&quot;font-family:&#39;Menlo-Regular&#39;,monospace;&quot;&gt;掛單數量&lt;br&gt;&lt;/span&gt;TradedAmount   decimal.Decimal             &lt;span style=&quot;font-family:&#39;Menlo-Regular&#39;,monospace;&quot;&gt;已成交數量&lt;br&gt;&lt;/span&gt;UntradedAmount decimal.Decimal             &lt;span style=&quot;font-family:&#39;Menlo-Regular&#39;,monospace;&quot;&gt;未成交數量&lt;br&gt;&lt;/span&gt;Turnover       decimal.Decimal             &lt;span style=&quot;font-family:&#39;Menlo-Regular&#39;,monospace;&quot;&gt;成交金額&lt;/span&gt;(&lt;span style=&quot;font-family:&#39;Menlo-Regular&#39;,monospace;&quot;&gt;成交價&lt;/span&gt;×&lt;span style=&quot;font-family:&#39;Menlo-Regular&#39;,monospace;&quot;&gt;成交量&lt;/span&gt;)&lt;br&gt;Reason         string                      &lt;span style=&quot;font-family:&#39;Menlo-Regular&#39;,monospace;&quot;&gt;事件原因或備註&lt;br&gt;&lt;/span&gt;IPAddress      string                      &lt;span style=&quot;font-family:&#39;Menlo-Regular&#39;,monospace;&quot;&gt;操作&lt;/span&gt;IP&lt;br&gt;DeviceInfo     string                      &lt;span style=&quot;font-family:&#39;Menlo-Regular&#39;,monospace;&quot;&gt;設備信息&lt;br&gt;&lt;/span&gt;ApiKeyId       string                      API Key ID&lt;br&gt;CreatedTime    time.Time                   &lt;span style=&quot;font-family:&#39;Menlo-Regular&#39;,monospace;&quot;&gt;事件時間&lt;/span&gt;&lt;/pre&gt;&lt;/div&gt;" style="text;strokeColor=none;fillColor=none;align=left;verticalAlign=middle;spacingLeft=4;spacingRight=4;overflow=hidden;points=[[0,0.5],[1,0.5]];portConstraint=eastwest;rotatable=0;whiteSpace=wrap;html=1;" parent="4k1SgF24hwj7LHfagTBf-129" vertex="1">
          <mxGeometry y="30" width="710" height="300" as="geometry" />
        </mxCell>
        <mxCell id="4k1SgF24hwj7LHfagTBf-133" value="TradeDetail 撮合交易明細構造" style="swimlane;fontStyle=0;childLayout=stackLayout;horizontal=1;startSize=30;horizontalStack=0;resizeParent=1;resizeParentMax=0;resizeLast=0;collapsible=1;marginBottom=0;whiteSpace=wrap;html=1;" parent="1" vertex="1">
          <mxGeometry x="1350" y="440" width="610" height="220" as="geometry" />
        </mxCell>
        <mxCell id="4k1SgF24hwj7LHfagTBf-135" value="&lt;div style=&quot;background-color:#1e1f22;color:#bcbec4&quot;&gt;&lt;pre style=&quot;font-family:&#39;JetBrains Mono&#39;,monospace;font-size:9.8pt;&quot;&gt;ID          &lt;span style=&quot;color:#cc7832;&quot;&gt;int             &lt;/span&gt;ID&lt;br&gt;BuyOrderId  string          &lt;span style=&quot;font-family:&#39;Menlo-Regular&#39;,monospace;&quot;&gt;買方訂單 &lt;/span&gt;ID &lt;span style=&quot;font-family:&#39;Menlo-Regular&#39;,monospace;&quot;&gt;對應買方 &lt;/span&gt;ExchangeOrder &lt;span style=&quot;font-family:&#39;Menlo-Regular&#39;,monospace;&quot;&gt;表&lt;/span&gt;order_id&lt;br&gt;SellOrderId string          &lt;span style=&quot;font-family:&#39;Menlo-Regular&#39;,monospace;&quot;&gt;賣方訂單 &lt;/span&gt;ID &lt;span style=&quot;font-family:&#39;Menlo-Regular&#39;,monospace;&quot;&gt;對應賣方 &lt;/span&gt;ExchangeOrder &lt;span style=&quot;font-family:&#39;Menlo-Regular&#39;,monospace;&quot;&gt;表&lt;/span&gt;order_id&lt;br&gt;Price       decimal.Decimal &lt;span style=&quot;font-family:&#39;Menlo-Regular&#39;,monospace;&quot;&gt;成交價格&lt;br&gt;&lt;/span&gt;DealAmount  decimal.Decimal &lt;span style=&quot;font-family:&#39;Menlo-Regular&#39;,monospace;&quot;&gt;成交數量&lt;br&gt;&lt;/span&gt;Symbol      string          &lt;span style=&quot;font-family:&#39;Menlo-Regular&#39;,monospace;&quot;&gt;交易符號&lt;br&gt;&lt;/span&gt;Remark      string          &lt;span style=&quot;font-family:&#39;Menlo-Regular&#39;,monospace;&quot;&gt;備注&lt;br&gt;&lt;/span&gt;TradeTime   time.Time       &lt;span style=&quot;font-family:&#39;Menlo-Regular&#39;,monospace;&quot;&gt;审核时间&lt;br&gt;&lt;/span&gt;CreatedTime time.Time       &lt;span style=&quot;font-family:&#39;Menlo-Regular&#39;,monospace;&quot;&gt;创建时间&lt;/span&gt;&lt;/pre&gt;&lt;/div&gt;" style="text;strokeColor=none;fillColor=none;align=left;verticalAlign=middle;spacingLeft=4;spacingRight=4;overflow=hidden;points=[[0,0.5],[1,0.5]];portConstraint=eastwest;rotatable=0;whiteSpace=wrap;html=1;" parent="4k1SgF24hwj7LHfagTBf-133" vertex="1">
          <mxGeometry y="30" width="610" height="190" as="geometry" />
        </mxCell>
        <mxCell id="4k1SgF24hwj7LHfagTBf-137" value="ExchangeOrder 撮合訂單構造" style="swimlane;fontStyle=0;childLayout=stackLayout;horizontal=1;startSize=30;horizontalStack=0;resizeParent=1;resizeParentMax=0;resizeLast=0;collapsible=1;marginBottom=0;whiteSpace=wrap;html=1;" parent="1" vertex="1">
          <mxGeometry x="1350" y="770" width="460" height="330" as="geometry" />
        </mxCell>
        <mxCell id="4k1SgF24hwj7LHfagTBf-139" value="&lt;div style=&quot;background-color:#1e1f22;color:#bcbec4&quot;&gt;&lt;pre style=&quot;font-family:&#39;JetBrains Mono&#39;,monospace;font-size:9.8pt;&quot;&gt;ID            &lt;span style=&quot;color:#cc7832;&quot;&gt;int             &lt;/span&gt;ID&lt;br&gt;OrderId       string          &lt;span style=&quot;font-family:&#39;Menlo-Regular&#39;,monospace;&quot;&gt;撮合訂單號&lt;br&gt;&lt;/span&gt;MemberId      int64           &lt;span style=&quot;font-family:&#39;Menlo-Regular&#39;,monospace;&quot;&gt;會員號&lt;br&gt;&lt;/span&gt;Type          string          &lt;span style=&quot;font-family:&#39;Menlo-Regular&#39;,monospace;&quot;&gt;掛單類型&lt;br&gt;&lt;/span&gt;Amount        decimal.Decimal &lt;span style=&quot;font-family:&#39;Menlo-Regular&#39;,monospace;&quot;&gt;买入或卖出量，对于市价买入单表&lt;br&gt;&lt;/span&gt;Symbol        string          &lt;span style=&quot;font-family:&#39;Menlo-Regular&#39;,monospace;&quot;&gt;交易符號&lt;br&gt;&lt;/span&gt;TradedAmount  decimal.Decimal &lt;span style=&quot;font-family:&#39;Menlo-Regular&#39;,monospace;&quot;&gt;成交量&lt;br&gt;&lt;/span&gt;Turnover      decimal.Decimal &lt;span style=&quot;font-family:&#39;Menlo-Regular&#39;,monospace;&quot;&gt;成交額 對市價買賣有用&lt;br&gt;&lt;/span&gt;CoinSymbol    string          &lt;span style=&quot;font-family:&#39;Menlo-Regular&#39;,monospace;&quot;&gt;币单位&lt;br&gt;&lt;/span&gt;BasesSymbol   string          &lt;span style=&quot;font-family:&#39;Menlo-Regular&#39;,monospace;&quot;&gt;结算单位&lt;br&gt;&lt;/span&gt;Status        string          &lt;span style=&quot;font-family:&#39;Menlo-Regular&#39;,monospace;&quot;&gt;订单状态&lt;br&gt;&lt;/span&gt;Direction     string          &lt;span style=&quot;font-family:&#39;Menlo-Regular&#39;,monospace;&quot;&gt;订单方向&lt;br&gt;&lt;/span&gt;Price         decimal.Decimal &lt;span style=&quot;font-family:&#39;Menlo-Regular&#39;,monospace;&quot;&gt;挂单价格&lt;br&gt;&lt;/span&gt;Time          time.Time       &lt;span style=&quot;font-family:&#39;Menlo-Regular&#39;,monospace;&quot;&gt;挂单时间&lt;br&gt;&lt;/span&gt;CompletedTime *time.Time      &lt;span style=&quot;font-family:&#39;Menlo-Regular&#39;,monospace;&quot;&gt;交易完成时间&lt;br&gt;&lt;/span&gt;CanceledTime  *time.Time      &lt;span style=&quot;font-family:&#39;Menlo-Regular&#39;,monospace;&quot;&gt;取消时间&lt;br&gt;&lt;/span&gt;UseDiscount   string          &lt;span style=&quot;font-family:&#39;Menlo-Regular&#39;,monospace;&quot;&gt;是否使用折扣 &lt;/span&gt;&lt;span style=&quot;color:#2aacb8;&quot;&gt;0 &lt;/span&gt;&lt;span style=&quot;font-family:&#39;Menlo-Regular&#39;,monospace;&quot;&gt;不使用 &lt;/span&gt;&lt;span style=&quot;color:#2aacb8;&quot;&gt;1&lt;/span&gt;&lt;span style=&quot;font-family:&#39;Menlo-Regular&#39;,monospace;&quot;&gt;使用&lt;/span&gt;&lt;/pre&gt;&lt;/div&gt;" style="text;strokeColor=none;fillColor=none;align=left;verticalAlign=middle;spacingLeft=4;spacingRight=4;overflow=hidden;points=[[0,0.5],[1,0.5]];portConstraint=eastwest;rotatable=0;whiteSpace=wrap;html=1;" parent="4k1SgF24hwj7LHfagTBf-137" vertex="1">
          <mxGeometry y="30" width="460" height="300" as="geometry" />
        </mxCell>
        <mxCell id="4k1SgF24hwj7LHfagTBf-141" value="" style="endArrow=classic;html=1;rounded=0;exitX=0.5;exitY=1;exitDx=0;exitDy=0;fillColor=#1ba1e2;strokeColor=#006EAF;strokeWidth=3;entryX=0.5;entryY=0;entryDx=0;entryDy=0;entryPerimeter=0;" parent="1" source="4k1SgF24hwj7LHfagTBf-143" target="4k1SgF24hwj7LHfagTBf-59" edge="1">
          <mxGeometry width="50" height="50" relative="1" as="geometry">
            <mxPoint x="610" y="180" as="sourcePoint" />
            <mxPoint x="620" y="330" as="targetPoint" />
            <Array as="points">
              <mxPoint x="180" y="260" />
              <mxPoint x="180" y="290" />
            </Array>
          </mxGeometry>
        </mxCell>
        <mxCell id="4k1SgF24hwj7LHfagTBf-154" value="&lt;font style=&quot;font-size: 15px; color: rgb(126, 166, 224);&quot;&gt;&lt;span style=&quot;text-wrap-mode: wrap; background-color: rgb(27, 29, 30);&quot;&gt;限價 買 單下單&amp;nbsp;&lt;/span&gt;進到賣單隊列撮合&lt;/font&gt;" style="edgeLabel;html=1;align=center;verticalAlign=middle;resizable=0;points=[];" parent="4k1SgF24hwj7LHfagTBf-141" vertex="1" connectable="0">
          <mxGeometry x="-0.0286" y="-1" relative="1" as="geometry">
            <mxPoint x="1" y="12" as="offset" />
          </mxGeometry>
        </mxCell>
        <mxCell id="4k1SgF24hwj7LHfagTBf-144" value="" style="endArrow=classic;html=1;rounded=0;exitX=0.5;exitY=1;exitDx=0;exitDy=0;fillColor=#1ba1e2;strokeColor=#006EAF;strokeWidth=3;entryX=0.5;entryY=0;entryDx=0;entryDy=0;entryPerimeter=0;" parent="1" source="4k1SgF24hwj7LHfagTBf-62" target="4k1SgF24hwj7LHfagTBf-143" edge="1">
          <mxGeometry width="50" height="50" relative="1" as="geometry">
            <mxPoint x="180" y="130" as="sourcePoint" />
            <mxPoint x="180" y="450" as="targetPoint" />
            <Array as="points" />
          </mxGeometry>
        </mxCell>
        <mxCell id="4k1SgF24hwj7LHfagTBf-143" value="&lt;font style=&quot;font-size: 15px; color: rgb(126, 166, 224);&quot;&gt;創建訂單:ExchangeOrder&amp;nbsp;&lt;/font&gt;&lt;div&gt;&lt;font style=&quot;font-size: 15px; color: rgb(126, 166, 224);&quot;&gt;訂單狀態Status =&amp;nbsp;TRADING&lt;/font&gt;&lt;/div&gt;" style="rounded=0;whiteSpace=wrap;html=1;" parent="1" vertex="1">
          <mxGeometry x="100" y="180" width="160" height="100" as="geometry" />
        </mxCell>
        <mxCell id="4k1SgF24hwj7LHfagTBf-149" value="&lt;font style=&quot;font-size: 15px;&quot;&gt;若撮合後仍有剩餘數量，將訂單加入對應隊列；否則標記訂單為完成&lt;/font&gt;&lt;div&gt;&lt;font style=&quot;font-size: 15px;&quot;&gt;&lt;br&gt;&lt;/font&gt;&lt;/div&gt;&lt;div&gt;&lt;font style=&quot;font-size: 15px;&quot;&gt;更新訂單&amp;nbsp;&lt;span style=&quot;background-color: transparent; color: light-dark(rgb(0, 0, 0), rgb(255, 255, 255));&quot;&gt;ExchangeOrder表&amp;nbsp;&lt;/span&gt;&lt;span style=&quot;background-color: transparent; color: light-dark(rgb(0, 0, 0), rgb(255, 255, 255));&quot;&gt;：&lt;/span&gt;&lt;/font&gt;&lt;/div&gt;&lt;div&gt;&lt;font style=&quot;font-size: 15px;&quot;&gt;Status =&amp;nbsp;TRADING&lt;/font&gt;&lt;/div&gt;&lt;div&gt;&lt;font style=&quot;font-size: 15px;&quot;&gt;amount(買入或賣出量):&lt;/font&gt;&lt;/div&gt;&lt;div&gt;&lt;font style=&quot;font-size: 15px;&quot;&gt;TradedAmount(成交量):&lt;/font&gt;&lt;/div&gt;&lt;div&gt;&lt;font style=&quot;font-size: 15px;&quot;&gt;Turnover(成交額):&lt;/font&gt;&lt;/div&gt;&lt;div&gt;&lt;font style=&quot;font-size: 15px;&quot;&gt;&lt;br&gt;&lt;/font&gt;&lt;/div&gt;&lt;div&gt;&lt;font style=&quot;font-size: 15px;&quot;&gt;成功撮合的添加撮合明細:&lt;/font&gt;&lt;/div&gt;&lt;div&gt;&lt;font style=&quot;font-size: 15px;&quot;&gt;TradeDetail 表&lt;/font&gt;&lt;/div&gt;&lt;div&gt;&lt;font style=&quot;font-size: 15px;&quot;&gt;BuyOrderId(對應買方訂單):&lt;/font&gt;&lt;/div&gt;&lt;div&gt;&lt;font style=&quot;font-size: 15px;&quot;&gt;SellOrderId(對應賣方訂單):&lt;/font&gt;&lt;/div&gt;&lt;div&gt;&lt;font style=&quot;font-size: 15px;&quot;&gt;Price(成交價):&lt;/font&gt;&lt;/div&gt;&lt;div&gt;&lt;font style=&quot;font-size: 15px;&quot;&gt;DealAmount(成交數量)&lt;/font&gt;&lt;/div&gt;&lt;div&gt;&lt;font style=&quot;font-size: 15px;&quot;&gt;&lt;br&gt;&lt;/font&gt;&lt;/div&gt;&lt;div&gt;&lt;br&gt;&lt;/div&gt;" style="rounded=0;whiteSpace=wrap;html=1;" parent="1" vertex="1">
          <mxGeometry x="430" y="680" width="393.75" height="320" as="geometry" />
        </mxCell>
        <mxCell id="4k1SgF24hwj7LHfagTBf-151" value="" style="endArrow=classic;html=1;rounded=0;exitX=0.5;exitY=1;exitDx=0;exitDy=0;fillColor=#1ba1e2;strokeColor=#006EAF;strokeWidth=3;exitPerimeter=0;entryX=0.5;entryY=0;entryDx=0;entryDy=0;" parent="1" source="4k1SgF24hwj7LHfagTBf-59" target="4k1SgF24hwj7LHfagTBf-149" edge="1">
          <mxGeometry width="50" height="50" relative="1" as="geometry">
            <mxPoint x="179.5" y="400" as="sourcePoint" />
            <mxPoint x="180" y="450" as="targetPoint" />
            <Array as="points" />
          </mxGeometry>
        </mxCell>
        <mxCell id="4k1SgF24hwj7LHfagTBf-189" value="&lt;font style=&quot;color: rgb(126, 166, 224);&quot;&gt;&lt;span style=&quot;font-size: 15px; text-wrap-mode: wrap; background-color: rgb(27, 29, 30);&quot;&gt;限價 買&lt;/span&gt;&lt;/font&gt;&lt;div&gt;&lt;font style=&quot;color: rgb(126, 166, 224);&quot;&gt;&lt;span style=&quot;font-size: 15px;&quot;&gt;單撮合&lt;/span&gt;&lt;/font&gt;&lt;/div&gt;" style="edgeLabel;html=1;align=center;verticalAlign=middle;resizable=0;points=[];" parent="4k1SgF24hwj7LHfagTBf-151" vertex="1" connectable="0">
          <mxGeometry x="-0.4788" relative="1" as="geometry">
            <mxPoint x="-7" y="-5" as="offset" />
          </mxGeometry>
        </mxCell>
        <mxCell id="4k1SgF24hwj7LHfagTBf-155" value="" style="endArrow=classic;html=1;rounded=0;exitX=1;exitY=0.5;exitDx=0;exitDy=0;fillColor=#1ba1e2;strokeColor=#006EAF;strokeWidth=3;entryX=0;entryY=0.5;entryDx=0;entryDy=0;entryPerimeter=0;" parent="1" source="4k1SgF24hwj7LHfagTBf-149" target="4k1SgF24hwj7LHfagTBf-60" edge="1">
          <mxGeometry width="50" height="50" relative="1" as="geometry">
            <mxPoint x="440" y="450" as="sourcePoint" />
            <mxPoint x="440" y="500" as="targetPoint" />
            <Array as="points" />
          </mxGeometry>
        </mxCell>
        <mxCell id="4k1SgF24hwj7LHfagTBf-158" value="&lt;font style=&quot;font-size: 14px; color: rgb(126, 166, 224);&quot;&gt;&lt;span style=&quot;font-size: 15px; text-wrap-mode: wrap; background-color: rgb(27, 29, 30);&quot;&gt;限價 買 單&lt;/span&gt;等待符合的新進買單撮合&lt;/font&gt;" style="edgeLabel;html=1;align=center;verticalAlign=middle;resizable=0;points=[];" parent="4k1SgF24hwj7LHfagTBf-155" vertex="1" connectable="0">
          <mxGeometry x="-0.076" y="2" relative="1" as="geometry">
            <mxPoint as="offset" />
          </mxGeometry>
        </mxCell>
        <mxCell id="4k1SgF24hwj7LHfagTBf-156" value="" style="endArrow=classic;html=1;rounded=0;fillColor=#1ba1e2;strokeColor=#006EAF;strokeWidth=3;entryX=0.5;entryY=0;entryDx=0;entryDy=0;exitX=0.5;exitY=1;exitDx=0;exitDy=0;" parent="1" source="4k1SgF24hwj7LHfagTBf-149" target="4k1SgF24hwj7LHfagTBf-157" edge="1">
          <mxGeometry width="50" height="50" relative="1" as="geometry">
            <mxPoint x="160" y="730" as="sourcePoint" />
            <mxPoint x="160" y="780" as="targetPoint" />
            <Array as="points" />
          </mxGeometry>
        </mxCell>
        <mxCell id="4k1SgF24hwj7LHfagTBf-168" value="&lt;font style=&quot;font-size: 16px; color: rgb(126, 166, 224);&quot;&gt;&lt;span style=&quot;font-size: 15px; text-wrap-mode: wrap; background-color: rgb(27, 29, 30);&quot;&gt;限價 買 單&lt;/span&gt;當下全部撮合完成&lt;/font&gt;" style="edgeLabel;html=1;align=center;verticalAlign=middle;resizable=0;points=[];" parent="4k1SgF24hwj7LHfagTBf-156" vertex="1" connectable="0">
          <mxGeometry x="-0.2174" relative="1" as="geometry">
            <mxPoint as="offset" />
          </mxGeometry>
        </mxCell>
        <mxCell id="4k1SgF24hwj7LHfagTBf-157" value="&lt;div&gt;&lt;font style=&quot;font-size: 15px; color: rgb(126, 166, 224);&quot;&gt;買 單全部撮合完成&lt;/font&gt;&lt;/div&gt;&lt;div&gt;&lt;font style=&quot;font-size: 15px; color: rgb(126, 166, 224);&quot;&gt;所有&amp;nbsp;&lt;span style=&quot;background-color: transparent;&quot;&gt;amount(買入或賣出量) 接消耗完畢&lt;/span&gt;&lt;/font&gt;&lt;/div&gt;&lt;div&gt;&lt;span style=&quot;background-color: transparent;&quot;&gt;&lt;font style=&quot;font-size: 15px; color: rgb(126, 166, 224);&quot;&gt;&lt;br&gt;&lt;/font&gt;&lt;/span&gt;&lt;/div&gt;&lt;div&gt;&lt;span style=&quot;background-color: transparent;&quot;&gt;&lt;font style=&quot;font-size: 15px; color: rgb(126, 166, 224);&quot;&gt;&lt;br&gt;&lt;/font&gt;&lt;/span&gt;&lt;/div&gt;&lt;div&gt;&lt;div&gt;&lt;font style=&quot;font-size: 15px; color: rgb(126, 166, 224);&quot;&gt;更新訂單&amp;nbsp;&lt;span style=&quot;background-color: transparent;&quot;&gt;ExchangeOrder&amp;nbsp;&lt;/span&gt;&lt;span style=&quot;background-color: transparent;&quot;&gt;：&lt;/span&gt;&lt;/font&gt;&lt;/div&gt;&lt;/div&gt;&lt;div&gt;&lt;span style=&quot;background-color: transparent;&quot;&gt;&lt;font style=&quot;font-size: 15px; color: rgb(126, 166, 224);&quot;&gt;&lt;br&gt;&lt;/font&gt;&lt;/span&gt;&lt;/div&gt;&lt;div&gt;&lt;div&gt;&lt;font style=&quot;font-size: 15px; color: rgb(126, 166, 224);&quot;&gt;Status =&amp;nbsp;COMPLETED(全部成交)&lt;/font&gt;&lt;/div&gt;&lt;/div&gt;&lt;div&gt;&lt;br&gt;&lt;/div&gt;" style="rounded=0;whiteSpace=wrap;html=1;" parent="1" vertex="1">
          <mxGeometry x="710" y="1180" width="250" height="220" as="geometry" />
        </mxCell>
        <mxCell id="4k1SgF24hwj7LHfagTBf-159" value="" style="endArrow=classic;html=1;rounded=0;fillColor=#1ba1e2;strokeColor=#006EAF;strokeWidth=3;entryX=0.5;entryY=0;entryDx=0;entryDy=0;exitX=0.478;exitY=0.967;exitDx=0;exitDy=0;exitPerimeter=0;" parent="1" source="4k1SgF24hwj7LHfagTBf-60" target="4k1SgF24hwj7LHfagTBf-157" edge="1">
          <mxGeometry width="50" height="50" relative="1" as="geometry">
            <mxPoint x="770" y="520" as="sourcePoint" />
            <mxPoint x="400" y="1135" as="targetPoint" />
            <Array as="points" />
          </mxGeometry>
        </mxCell>
        <mxCell id="4k1SgF24hwj7LHfagTBf-160" value="&lt;font style=&quot;font-size: 15px; color: rgb(126, 166, 224);&quot;&gt;&lt;span style=&quot;text-wrap-mode: wrap; background-color: rgb(27, 29, 30);&quot;&gt;限價 買 單&lt;/span&gt;剩餘全撮合完&lt;/font&gt;" style="edgeLabel;html=1;align=center;verticalAlign=middle;resizable=0;points=[];" parent="4k1SgF24hwj7LHfagTBf-159" vertex="1" connectable="0">
          <mxGeometry x="-0.1672" relative="1" as="geometry">
            <mxPoint as="offset" />
          </mxGeometry>
        </mxCell>
        <mxCell id="4k1SgF24hwj7LHfagTBf-161" value="&lt;font style=&quot;font-size: 15px; color: rgb(126, 166, 224);&quot;&gt;限價 買 單取消&lt;/font&gt;" style="rounded=0;whiteSpace=wrap;html=1;" parent="1" vertex="1">
          <mxGeometry x="294" y="50" width="120" height="60" as="geometry" />
        </mxCell>
        <mxCell id="4k1SgF24hwj7LHfagTBf-162" value="" style="endArrow=classic;html=1;rounded=0;exitX=0.5;exitY=1;exitDx=0;exitDy=0;fillColor=#1ba1e2;strokeColor=#006EAF;strokeWidth=3;entryX=0.459;entryY=-0.044;entryDx=0;entryDy=0;entryPerimeter=0;" parent="1" source="4k1SgF24hwj7LHfagTBf-161" target="4k1SgF24hwj7LHfagTBf-60" edge="1">
          <mxGeometry width="50" height="50" relative="1" as="geometry">
            <mxPoint x="490" y="220" as="sourcePoint" />
            <mxPoint x="490" y="270" as="targetPoint" />
            <Array as="points" />
          </mxGeometry>
        </mxCell>
        <mxCell id="4k1SgF24hwj7LHfagTBf-163" value="&lt;div&gt;&lt;font style=&quot;font-size: 15px; color: rgb(126, 166, 224);&quot;&gt;&lt;br&gt;&lt;/font&gt;&lt;/div&gt;&lt;div&gt;&lt;font style=&quot;font-size: 15px; color: rgb(126, 166, 224);&quot;&gt;買 單取消&lt;/font&gt;&lt;/div&gt;&lt;div&gt;&lt;font style=&quot;font-size: 15px; color: rgb(126, 166, 224);&quot;&gt;結算剩餘:&lt;/font&gt;&lt;/div&gt;&lt;div&gt;&lt;div&gt;&lt;font style=&quot;font-size: 15px; color: rgb(126, 166, 224);&quot;&gt;amount(買入或賣出量):&lt;/font&gt;&lt;/div&gt;&lt;div&gt;&lt;font style=&quot;font-size: 15px; color: rgb(126, 166, 224);&quot;&gt;TradedAmount(成交量):&lt;/font&gt;&lt;/div&gt;&lt;div&gt;&lt;font style=&quot;font-size: 15px; color: rgb(126, 166, 224);&quot;&gt;Turnover(成交額):&lt;/font&gt;&lt;/div&gt;&lt;/div&gt;&lt;div&gt;&lt;span style=&quot;background-color: transparent;&quot;&gt;&lt;font style=&quot;font-size: 15px; color: rgb(126, 166, 224);&quot;&gt;&lt;br&gt;&lt;/font&gt;&lt;/span&gt;&lt;/div&gt;&lt;div&gt;&lt;span style=&quot;background-color: transparent;&quot;&gt;&lt;font style=&quot;font-size: 15px; color: rgb(126, 166, 224);&quot;&gt;&lt;br&gt;&lt;/font&gt;&lt;/span&gt;&lt;/div&gt;&lt;div&gt;&lt;div&gt;&lt;font style=&quot;font-size: 15px; color: rgb(126, 166, 224);&quot;&gt;更新訂單&amp;nbsp;&lt;span style=&quot;background-color: transparent;&quot;&gt;ExchangeOrder&amp;nbsp;&lt;/span&gt;&lt;span style=&quot;background-color: transparent;&quot;&gt;：&lt;/span&gt;&lt;/font&gt;&lt;/div&gt;&lt;/div&gt;&lt;div&gt;&lt;span style=&quot;background-color: transparent;&quot;&gt;&lt;font style=&quot;font-size: 15px; color: rgb(126, 166, 224);&quot;&gt;&lt;br&gt;&lt;/font&gt;&lt;/span&gt;&lt;/div&gt;&lt;div&gt;&lt;div&gt;&lt;font style=&quot;font-size: 15px; color: rgb(126, 166, 224);&quot;&gt;Status =&amp;nbsp;COMPLETED(部分取消)&lt;/font&gt;&lt;/div&gt;&lt;/div&gt;&lt;div&gt;&lt;br&gt;&lt;/div&gt;" style="rounded=0;whiteSpace=wrap;html=1;" parent="1" vertex="1">
          <mxGeometry x="985" y="1180" width="245" height="220" as="geometry" />
        </mxCell>
        <mxCell id="4k1SgF24hwj7LHfagTBf-165" value="" style="endArrow=classic;html=1;rounded=0;exitX=0.5;exitY=1;exitDx=0;exitDy=0;fillColor=#1ba1e2;strokeColor=#006EAF;strokeWidth=3;entryX=0.5;entryY=0;entryDx=0;entryDy=0;exitPerimeter=0;" parent="1" source="4k1SgF24hwj7LHfagTBf-60" target="4k1SgF24hwj7LHfagTBf-163" edge="1">
          <mxGeometry width="50" height="50" relative="1" as="geometry">
            <mxPoint x="600" y="510" as="sourcePoint" />
            <mxPoint x="600" y="560" as="targetPoint" />
            <Array as="points" />
          </mxGeometry>
        </mxCell>
        <mxCell id="4k1SgF24hwj7LHfagTBf-167" value="&lt;font style=&quot;color: rgb(126, 166, 224);&quot;&gt;&lt;span style=&quot;font-size: 15px; text-wrap-mode: wrap; background-color: rgb(27, 29, 30);&quot;&gt;限價 買 單取消&lt;/span&gt;&lt;span style=&quot;font-size: 15px;&quot;&gt;剩餘尚未撮合完&lt;/span&gt;&lt;/font&gt;" style="edgeLabel;html=1;align=center;verticalAlign=middle;resizable=0;points=[];" parent="4k1SgF24hwj7LHfagTBf-165" vertex="1" connectable="0">
          <mxGeometry x="-0.0347" y="-3" relative="1" as="geometry">
            <mxPoint as="offset" />
          </mxGeometry>
        </mxCell>
        <mxCell id="4k1SgF24hwj7LHfagTBf-170" value="" style="endArrow=classic;html=1;rounded=0;exitX=0.5;exitY=1;exitDx=0;exitDy=0;fillColor=#60a917;strokeColor=#2D7600;strokeWidth=3;entryX=0.5;entryY=0;entryDx=0;entryDy=0;entryPerimeter=0;" parent="1" source="4k1SgF24hwj7LHfagTBf-63" target="4k1SgF24hwj7LHfagTBf-169" edge="1">
          <mxGeometry width="50" height="50" relative="1" as="geometry">
            <mxPoint x="900" y="130" as="sourcePoint" />
            <mxPoint x="745" y="390" as="targetPoint" />
          </mxGeometry>
        </mxCell>
        <mxCell id="4k1SgF24hwj7LHfagTBf-169" value="&lt;font style=&quot;font-size: 16px; color: rgb(151, 208, 119);&quot;&gt;創建訂單:ExchangeOrder&amp;nbsp;&lt;/font&gt;&lt;div&gt;&lt;font style=&quot;font-size: 16px; color: rgb(151, 208, 119);&quot;&gt;訂單狀態Status =&amp;nbsp;TRADING&lt;/font&gt;&lt;/div&gt;" style="rounded=0;whiteSpace=wrap;html=1;" parent="1" vertex="1">
          <mxGeometry x="990" y="180" width="160" height="100" as="geometry" />
        </mxCell>
        <mxCell id="4k1SgF24hwj7LHfagTBf-171" value="" style="endArrow=classic;html=1;rounded=0;exitX=0.592;exitY=0.986;exitDx=0;exitDy=0;fillColor=#60a917;strokeColor=#2D7600;strokeWidth=3;entryX=0.6;entryY=-0.014;entryDx=0;entryDy=0;entryPerimeter=0;exitPerimeter=0;" parent="1" source="4k1SgF24hwj7LHfagTBf-60" target="4k1SgF24hwj7LHfagTBf-149" edge="1">
          <mxGeometry width="50" height="50" relative="1" as="geometry">
            <mxPoint x="910" y="584" as="sourcePoint" />
            <mxPoint x="910" y="654" as="targetPoint" />
          </mxGeometry>
        </mxCell>
        <mxCell id="4k1SgF24hwj7LHfagTBf-188" value="&lt;font style=&quot;color: rgb(151, 208, 119);&quot;&gt;&lt;span style=&quot;font-size: 15px; text-wrap-mode: wrap; background-color: rgb(27, 29, 30);&quot;&gt;限價 賣 單&lt;/span&gt;&lt;span style=&quot;font-size: 15px;&quot;&gt;撮合&lt;/span&gt;&lt;/font&gt;" style="edgeLabel;html=1;align=center;verticalAlign=middle;resizable=0;points=[];" parent="4k1SgF24hwj7LHfagTBf-171" vertex="1" connectable="0">
          <mxGeometry x="-0.4148" y="4" relative="1" as="geometry">
            <mxPoint x="-1" as="offset" />
          </mxGeometry>
        </mxCell>
        <mxCell id="4k1SgF24hwj7LHfagTBf-172" value="" style="endArrow=classic;html=1;rounded=0;exitX=0;exitY=0.5;exitDx=0;exitDy=0;fillColor=#60a917;strokeColor=#2D7600;strokeWidth=3;entryX=1;entryY=0.5;entryDx=0;entryDy=0;entryPerimeter=0;" parent="1" source="4k1SgF24hwj7LHfagTBf-149" target="4k1SgF24hwj7LHfagTBf-59" edge="1">
          <mxGeometry width="50" height="50" relative="1" as="geometry">
            <mxPoint x="238.75" y="590" as="sourcePoint" />
            <mxPoint x="238.75" y="660" as="targetPoint" />
          </mxGeometry>
        </mxCell>
        <mxCell id="4k1SgF24hwj7LHfagTBf-173" value="&lt;font style=&quot;color: rgb(151, 208, 119);&quot;&gt;&lt;span style=&quot;font-size: 15px; text-wrap-mode: wrap; background-color: rgb(27, 29, 30);&quot;&gt;限價 賣 單&lt;/span&gt;&lt;span style=&quot;font-size: 14px;&quot;&gt;等待符合的新進賣單撮合&lt;/span&gt;&lt;/font&gt;" style="edgeLabel;html=1;align=center;verticalAlign=middle;resizable=0;points=[];" parent="4k1SgF24hwj7LHfagTBf-172" vertex="1" connectable="0">
          <mxGeometry x="0.0676" y="5" relative="1" as="geometry">
            <mxPoint y="37" as="offset" />
          </mxGeometry>
        </mxCell>
        <mxCell id="4k1SgF24hwj7LHfagTBf-174" value="&lt;font style=&quot;font-size: 15px; color: rgb(151, 208, 119);&quot;&gt;限價 賣 單取消&lt;/font&gt;" style="rounded=0;whiteSpace=wrap;html=1;" parent="1" vertex="1">
          <mxGeometry x="815" y="50" width="120" height="60" as="geometry" />
        </mxCell>
        <mxCell id="4k1SgF24hwj7LHfagTBf-175" value="" style="endArrow=classic;html=1;rounded=0;exitX=0.5;exitY=1;exitDx=0;exitDy=0;fillColor=#60a917;strokeColor=#2D7600;strokeWidth=3;entryX=0.629;entryY=0;entryDx=0;entryDy=0;entryPerimeter=0;" parent="1" source="4k1SgF24hwj7LHfagTBf-174" target="4k1SgF24hwj7LHfagTBf-59" edge="1">
          <mxGeometry width="50" height="50" relative="1" as="geometry">
            <mxPoint x="839.38" y="160" as="sourcePoint" />
            <mxPoint x="839.38" y="230" as="targetPoint" />
          </mxGeometry>
        </mxCell>
        <mxCell id="4k1SgF24hwj7LHfagTBf-176" value="&lt;div&gt;&lt;font style=&quot;font-size: 15px; color: rgb(151, 208, 119);&quot;&gt;&lt;br&gt;&lt;/font&gt;&lt;/div&gt;&lt;div&gt;&lt;font style=&quot;font-size: 15px; color: rgb(151, 208, 119);&quot;&gt;賣 單取消&lt;/font&gt;&lt;/div&gt;&lt;div&gt;&lt;font style=&quot;font-size: 15px; color: rgb(151, 208, 119);&quot;&gt;結算剩餘:&lt;/font&gt;&lt;/div&gt;&lt;div&gt;&lt;div&gt;&lt;font style=&quot;font-size: 15px; color: rgb(151, 208, 119);&quot;&gt;amount(買入或賣出量):&lt;/font&gt;&lt;/div&gt;&lt;div&gt;&lt;font style=&quot;font-size: 15px; color: rgb(151, 208, 119);&quot;&gt;TradedAmount(成交量):&lt;/font&gt;&lt;/div&gt;&lt;div&gt;&lt;font style=&quot;font-size: 15px; color: rgb(151, 208, 119);&quot;&gt;Turnover(成交額):&lt;/font&gt;&lt;/div&gt;&lt;/div&gt;&lt;div&gt;&lt;span style=&quot;background-color: transparent;&quot;&gt;&lt;font style=&quot;font-size: 15px; color: rgb(151, 208, 119);&quot;&gt;&lt;br&gt;&lt;/font&gt;&lt;/span&gt;&lt;/div&gt;&lt;div&gt;&lt;span style=&quot;background-color: transparent;&quot;&gt;&lt;font style=&quot;font-size: 15px; color: rgb(151, 208, 119);&quot;&gt;&lt;br&gt;&lt;/font&gt;&lt;/span&gt;&lt;/div&gt;&lt;div&gt;&lt;div&gt;&lt;font style=&quot;font-size: 15px; color: rgb(151, 208, 119);&quot;&gt;更新訂單&amp;nbsp;&lt;span style=&quot;background-color: transparent;&quot;&gt;ExchangeOrder&amp;nbsp;&lt;/span&gt;&lt;span style=&quot;background-color: transparent;&quot;&gt;：&lt;/span&gt;&lt;/font&gt;&lt;/div&gt;&lt;/div&gt;&lt;div&gt;&lt;span style=&quot;background-color: transparent;&quot;&gt;&lt;font style=&quot;font-size: 15px; color: rgb(151, 208, 119);&quot;&gt;&lt;br&gt;&lt;/font&gt;&lt;/span&gt;&lt;/div&gt;&lt;div&gt;&lt;div&gt;&lt;font style=&quot;font-size: 15px; color: rgb(151, 208, 119);&quot;&gt;Status =&amp;nbsp;COMPLETED(部分取消)&lt;/font&gt;&lt;/div&gt;&lt;/div&gt;&lt;div&gt;&lt;br&gt;&lt;/div&gt;" style="rounded=0;whiteSpace=wrap;html=1;" parent="1" vertex="1">
          <mxGeometry y="1180" width="240" height="220" as="geometry" />
        </mxCell>
        <mxCell id="4k1SgF24hwj7LHfagTBf-178" value="&lt;div&gt;&lt;font style=&quot;font-size: 15px; color: rgb(151, 208, 119);&quot;&gt;賣 單全部撮合完成&lt;/font&gt;&lt;/div&gt;&lt;div&gt;&lt;font style=&quot;font-size: 15px; color: rgb(151, 208, 119);&quot;&gt;所有&amp;nbsp;&lt;span style=&quot;background-color: transparent;&quot;&gt;amount(買入或賣出量) 接消耗完畢&lt;/span&gt;&lt;/font&gt;&lt;/div&gt;&lt;div&gt;&lt;span style=&quot;background-color: transparent;&quot;&gt;&lt;font style=&quot;font-size: 15px; color: rgb(151, 208, 119);&quot;&gt;&lt;br&gt;&lt;/font&gt;&lt;/span&gt;&lt;/div&gt;&lt;div&gt;&lt;span style=&quot;background-color: transparent;&quot;&gt;&lt;font style=&quot;font-size: 15px; color: rgb(151, 208, 119);&quot;&gt;&lt;br&gt;&lt;/font&gt;&lt;/span&gt;&lt;/div&gt;&lt;div&gt;&lt;div&gt;&lt;font style=&quot;font-size: 15px; color: rgb(151, 208, 119);&quot;&gt;更新訂單&amp;nbsp;&lt;span style=&quot;background-color: transparent;&quot;&gt;ExchangeOrder&amp;nbsp;&lt;/span&gt;&lt;span style=&quot;background-color: transparent;&quot;&gt;：&lt;/span&gt;&lt;/font&gt;&lt;/div&gt;&lt;/div&gt;&lt;div&gt;&lt;span style=&quot;background-color: transparent;&quot;&gt;&lt;font style=&quot;font-size: 15px; color: rgb(151, 208, 119);&quot;&gt;&lt;br&gt;&lt;/font&gt;&lt;/span&gt;&lt;/div&gt;&lt;div&gt;&lt;div&gt;&lt;font style=&quot;font-size: 15px; color: rgb(151, 208, 119);&quot;&gt;Status =&amp;nbsp;COMPLETED(全部成交)&lt;/font&gt;&lt;/div&gt;&lt;/div&gt;&lt;div&gt;&lt;br&gt;&lt;/div&gt;" style="rounded=0;whiteSpace=wrap;html=1;" parent="1" vertex="1">
          <mxGeometry x="270" y="1180" width="240" height="220" as="geometry" />
        </mxCell>
        <mxCell id="4k1SgF24hwj7LHfagTBf-179" value="" style="endArrow=classic;html=1;rounded=0;exitX=0.424;exitY=1.014;exitDx=0;exitDy=0;fillColor=#60a917;strokeColor=#2D7600;strokeWidth=3;entryX=0.453;entryY=0.013;entryDx=0;entryDy=0;entryPerimeter=0;exitPerimeter=0;" parent="1" source="4k1SgF24hwj7LHfagTBf-149" target="4k1SgF24hwj7LHfagTBf-178" edge="1">
          <mxGeometry width="50" height="50" relative="1" as="geometry">
            <mxPoint x="270" y="1000" as="sourcePoint" />
            <mxPoint x="270" y="1070" as="targetPoint" />
          </mxGeometry>
        </mxCell>
        <mxCell id="4k1SgF24hwj7LHfagTBf-180" value="&lt;font style=&quot;color: rgb(151, 208, 119);&quot;&gt;&lt;span style=&quot;font-size: 15px; text-wrap-mode: wrap; background-color: rgb(27, 29, 30);&quot;&gt;限價 賣 單&lt;/span&gt;&lt;span style=&quot;font-size: 16px;&quot;&gt;當下全部撮合完成&lt;/span&gt;&lt;/font&gt;" style="edgeLabel;html=1;align=center;verticalAlign=middle;resizable=0;points=[];" parent="4k1SgF24hwj7LHfagTBf-179" vertex="1" connectable="0">
          <mxGeometry x="-0.0898" y="-5" relative="1" as="geometry">
            <mxPoint as="offset" />
          </mxGeometry>
        </mxCell>
        <mxCell id="4k1SgF24hwj7LHfagTBf-181" value="" style="endArrow=classic;html=1;rounded=0;exitX=0.388;exitY=1.047;exitDx=0;exitDy=0;fillColor=#60a917;strokeColor=#2D7600;strokeWidth=3;entryX=0.362;entryY=0.013;entryDx=0;entryDy=0;entryPerimeter=0;exitPerimeter=0;" parent="1" source="4k1SgF24hwj7LHfagTBf-59" target="4k1SgF24hwj7LHfagTBf-178" edge="1">
          <mxGeometry width="50" height="50" relative="1" as="geometry">
            <mxPoint x="150" y="600" as="sourcePoint" />
            <mxPoint x="150" y="670" as="targetPoint" />
          </mxGeometry>
        </mxCell>
        <mxCell id="4k1SgF24hwj7LHfagTBf-183" value="&lt;font style=&quot;color: rgb(151, 208, 119);&quot;&gt;&lt;span style=&quot;font-size: 15px; text-wrap-mode: wrap; background-color: rgb(27, 29, 30);&quot;&gt;限價 賣 單&lt;/span&gt;&lt;span style=&quot;font-size: 15px;&quot;&gt;剩餘全撮合完&lt;/span&gt;&lt;/font&gt;" style="edgeLabel;html=1;align=center;verticalAlign=middle;resizable=0;points=[];" parent="4k1SgF24hwj7LHfagTBf-181" vertex="1" connectable="0">
          <mxGeometry x="-0.2278" y="-5" relative="1" as="geometry">
            <mxPoint as="offset" />
          </mxGeometry>
        </mxCell>
        <mxCell id="4k1SgF24hwj7LHfagTBf-184" value="" style="endArrow=classic;html=1;rounded=0;fillColor=#60a917;strokeColor=#2D7600;strokeWidth=3;exitX=0.307;exitY=1.031;exitDx=0;exitDy=0;exitPerimeter=0;" parent="1" source="4k1SgF24hwj7LHfagTBf-59" target="4k1SgF24hwj7LHfagTBf-176" edge="1">
          <mxGeometry width="50" height="50" relative="1" as="geometry">
            <mxPoint x="129" y="670" as="sourcePoint" />
            <mxPoint x="129.38" y="740" as="targetPoint" />
          </mxGeometry>
        </mxCell>
        <mxCell id="4k1SgF24hwj7LHfagTBf-185" value="&lt;font style=&quot;color: rgb(151, 208, 119);&quot;&gt;&lt;span style=&quot;font-size: 15px; text-wrap-mode: wrap; background-color: rgb(27, 29, 30);&quot;&gt;限價 賣 單取消&lt;/span&gt;&lt;span style=&quot;font-size: 15px;&quot;&gt;尚未撮合完&lt;/span&gt;&lt;/font&gt;" style="edgeLabel;html=1;align=center;verticalAlign=middle;resizable=0;points=[];" parent="4k1SgF24hwj7LHfagTBf-184" vertex="1" connectable="0">
          <mxGeometry x="-0.06" y="-3" relative="1" as="geometry">
            <mxPoint as="offset" />
          </mxGeometry>
        </mxCell>
        <mxCell id="nDfKjM9kAOEMCihiZasA-80" value="&lt;font style=&quot;font-size: 15px; color: rgb(151, 208, 119);&quot;&gt;限價&amp;nbsp; 賣 單列&lt;/font&gt;&lt;div&gt;&lt;font style=&quot;font-size: 15px; color: rgb(151, 208, 119);&quot;&gt;TreeMap&amp;lt;Price,OrderList&amp;gt;&lt;/font&gt;&lt;/div&gt;&lt;div&gt;&lt;font style=&quot;font-size: 15px; color: rgb(151, 208, 119);&quot;&gt;價格從低到高排列&lt;/font&gt;&lt;/div&gt;" style="strokeWidth=2;html=1;shape=mxgraph.flowchart.direct_data;whiteSpace=wrap;" vertex="1" parent="1">
          <mxGeometry x="2170" y="390" width="260" height="80" as="geometry" />
        </mxCell>
        <mxCell id="nDfKjM9kAOEMCihiZasA-81" value="&lt;font style=&quot;font-size: 15px; color: rgb(126, 166, 224);&quot;&gt;限價 買 單列&lt;/font&gt;&lt;div&gt;&lt;div&gt;&lt;font style=&quot;font-size: 15px; color: rgb(126, 166, 224);&quot;&gt;TreeMap&amp;lt;Price,OrderList&amp;gt;&lt;/font&gt;&lt;/div&gt;&lt;/div&gt;&lt;div&gt;&lt;font style=&quot;font-size: 15px; color: rgb(126, 166, 224);&quot;&gt;價格從高到低排列&lt;/font&gt;&lt;/div&gt;&lt;div&gt;&lt;br&gt;&lt;/div&gt;" style="strokeWidth=2;html=1;shape=mxgraph.flowchart.direct_data;whiteSpace=wrap;" vertex="1" parent="1">
          <mxGeometry x="3053.75" y="380" width="270" height="90" as="geometry" />
        </mxCell>
        <mxCell id="nDfKjM9kAOEMCihiZasA-82" value="&lt;font style=&quot;font-size: 15px; color: rgb(126, 166, 224);&quot;&gt;市限價 買 單下單&lt;/font&gt;" style="rounded=0;whiteSpace=wrap;html=1;" vertex="1" parent="1">
          <mxGeometry x="2238.75" y="50" width="120" height="60" as="geometry" />
        </mxCell>
        <mxCell id="nDfKjM9kAOEMCihiZasA-83" value="&lt;font style=&quot;font-size: 15px; color: rgb(151, 208, 119);&quot;&gt;市價 賣 單下單&lt;/font&gt;" style="rounded=0;whiteSpace=wrap;html=1;" vertex="1" parent="1">
          <mxGeometry x="3128.75" y="50" width="120" height="60" as="geometry" />
        </mxCell>
        <mxCell id="nDfKjM9kAOEMCihiZasA-84" value="&lt;font style=&quot;color: rgb(151, 208, 119);&quot;&gt;&lt;span style=&quot;font-size: 15px; text-wrap-mode: wrap; background-color: rgb(27, 29, 30);&quot;&gt;限價 賣 單&amp;nbsp;&lt;/span&gt;&lt;span style=&quot;font-size: 15px;&quot;&gt;進到買單隊列撮合&lt;/span&gt;&lt;/font&gt;" style="endArrow=classic;html=1;rounded=0;exitX=0.5;exitY=1;exitDx=0;exitDy=0;fillColor=#60a917;strokeColor=#2D7600;strokeWidth=3;entryX=0.5;entryY=0;entryDx=0;entryDy=0;entryPerimeter=0;" edge="1" parent="1" source="nDfKjM9kAOEMCihiZasA-105" target="nDfKjM9kAOEMCihiZasA-81">
          <mxGeometry width="50" height="50" relative="1" as="geometry">
            <mxPoint x="2648.75" y="190" as="sourcePoint" />
            <mxPoint x="3028.75" y="280" as="targetPoint" />
          </mxGeometry>
        </mxCell>
        <mxCell id="nDfKjM9kAOEMCihiZasA-85" value="" style="endArrow=classic;html=1;rounded=0;exitX=0.5;exitY=1;exitDx=0;exitDy=0;fillColor=#1ba1e2;strokeColor=#006EAF;strokeWidth=3;entryX=0.5;entryY=0;entryDx=0;entryDy=0;entryPerimeter=0;" edge="1" parent="1" source="nDfKjM9kAOEMCihiZasA-88" target="nDfKjM9kAOEMCihiZasA-80">
          <mxGeometry width="50" height="50" relative="1" as="geometry">
            <mxPoint x="2728.75" y="180" as="sourcePoint" />
            <mxPoint x="2738.75" y="330" as="targetPoint" />
            <Array as="points">
              <mxPoint x="2298.75" y="260" />
              <mxPoint x="2298.75" y="290" />
            </Array>
          </mxGeometry>
        </mxCell>
        <mxCell id="nDfKjM9kAOEMCihiZasA-86" value="&lt;font style=&quot;font-size: 15px; color: rgb(126, 166, 224);&quot;&gt;&lt;span style=&quot;text-wrap-mode: wrap; background-color: rgb(27, 29, 30);&quot;&gt;市價 買 單下單&amp;nbsp;&lt;/span&gt;進到賣單隊列撮合&lt;/font&gt;" style="edgeLabel;html=1;align=center;verticalAlign=middle;resizable=0;points=[];" vertex="1" connectable="0" parent="nDfKjM9kAOEMCihiZasA-85">
          <mxGeometry x="-0.0286" y="-1" relative="1" as="geometry">
            <mxPoint x="1" y="12" as="offset" />
          </mxGeometry>
        </mxCell>
        <mxCell id="nDfKjM9kAOEMCihiZasA-87" value="" style="endArrow=classic;html=1;rounded=0;exitX=0.5;exitY=1;exitDx=0;exitDy=0;fillColor=#1ba1e2;strokeColor=#006EAF;strokeWidth=3;entryX=0.5;entryY=0;entryDx=0;entryDy=0;entryPerimeter=0;" edge="1" parent="1" source="nDfKjM9kAOEMCihiZasA-82" target="nDfKjM9kAOEMCihiZasA-88">
          <mxGeometry width="50" height="50" relative="1" as="geometry">
            <mxPoint x="2298.75" y="130" as="sourcePoint" />
            <mxPoint x="2298.75" y="450" as="targetPoint" />
            <Array as="points" />
          </mxGeometry>
        </mxCell>
        <mxCell id="nDfKjM9kAOEMCihiZasA-88" value="&lt;font style=&quot;font-size: 15px; color: rgb(126, 166, 224);&quot;&gt;創建訂單:ExchangeOrder&amp;nbsp;&lt;/font&gt;&lt;div&gt;&lt;font style=&quot;font-size: 15px; color: rgb(126, 166, 224);&quot;&gt;訂單狀態Status =&amp;nbsp;TRADING&lt;/font&gt;&lt;/div&gt;" style="rounded=0;whiteSpace=wrap;html=1;" vertex="1" parent="1">
          <mxGeometry x="2218.75" y="180" width="160" height="100" as="geometry" />
        </mxCell>
        <mxCell id="nDfKjM9kAOEMCihiZasA-89" value="&lt;font style=&quot;font-size: 15px;&quot;&gt;若撮合後仍有剩餘數量，會直接部分成交&lt;/font&gt;&lt;div&gt;&lt;font style=&quot;font-size: 15px;&quot;&gt;&lt;br&gt;&lt;/font&gt;&lt;/div&gt;&lt;div&gt;&lt;font style=&quot;font-size: 15px;&quot;&gt;更新訂單&amp;nbsp;&lt;span style=&quot;background-color: transparent; color: light-dark(rgb(0, 0, 0), rgb(255, 255, 255));&quot;&gt;ExchangeOrder表&amp;nbsp;&lt;/span&gt;&lt;span style=&quot;background-color: transparent; color: light-dark(rgb(0, 0, 0), rgb(255, 255, 255));&quot;&gt;：&lt;/span&gt;&lt;/font&gt;&lt;/div&gt;&lt;div&gt;&lt;font style=&quot;font-size: 15px;&quot;&gt;Status =&amp;nbsp;TRADING&lt;/font&gt;&lt;/div&gt;&lt;div&gt;&lt;font style=&quot;font-size: 15px;&quot;&gt;amount(買入或賣出量):&lt;/font&gt;&lt;/div&gt;&lt;div&gt;&lt;font style=&quot;font-size: 15px;&quot;&gt;TradedAmount(成交量):&lt;/font&gt;&lt;/div&gt;&lt;div&gt;&lt;font style=&quot;font-size: 15px;&quot;&gt;Turnover(成交額):&lt;/font&gt;&lt;/div&gt;&lt;div&gt;&lt;font style=&quot;font-size: 15px;&quot;&gt;&lt;br&gt;&lt;/font&gt;&lt;/div&gt;&lt;div&gt;&lt;font style=&quot;font-size: 15px;&quot;&gt;成功撮合的添加撮合明細:&lt;/font&gt;&lt;/div&gt;&lt;div&gt;&lt;font style=&quot;font-size: 15px;&quot;&gt;TradeDetail 表&lt;/font&gt;&lt;/div&gt;&lt;div&gt;&lt;font style=&quot;font-size: 15px;&quot;&gt;BuyOrderId(對應買方訂單):&lt;/font&gt;&lt;/div&gt;&lt;div&gt;&lt;font style=&quot;font-size: 15px;&quot;&gt;SellOrderId(對應賣方訂單):&lt;/font&gt;&lt;/div&gt;&lt;div&gt;&lt;font style=&quot;font-size: 15px;&quot;&gt;Price(成交價):&lt;/font&gt;&lt;/div&gt;&lt;div&gt;&lt;font style=&quot;font-size: 15px;&quot;&gt;DealAmount(成交數量)&lt;/font&gt;&lt;/div&gt;&lt;div&gt;&lt;font style=&quot;font-size: 15px;&quot;&gt;&lt;br&gt;&lt;/font&gt;&lt;/div&gt;&lt;div&gt;&lt;br&gt;&lt;/div&gt;" style="rounded=0;whiteSpace=wrap;html=1;" vertex="1" parent="1">
          <mxGeometry x="2548.75" y="680" width="393.75" height="320" as="geometry" />
        </mxCell>
        <mxCell id="nDfKjM9kAOEMCihiZasA-90" value="" style="endArrow=classic;html=1;rounded=0;exitX=0.5;exitY=1;exitDx=0;exitDy=0;fillColor=#1ba1e2;strokeColor=#006EAF;strokeWidth=3;exitPerimeter=0;entryX=0.415;entryY=-0.009;entryDx=0;entryDy=0;entryPerimeter=0;" edge="1" parent="1" source="nDfKjM9kAOEMCihiZasA-80" target="nDfKjM9kAOEMCihiZasA-89">
          <mxGeometry width="50" height="50" relative="1" as="geometry">
            <mxPoint x="2298.25" y="400" as="sourcePoint" />
            <mxPoint x="2740" y="680" as="targetPoint" />
            <Array as="points" />
          </mxGeometry>
        </mxCell>
        <mxCell id="nDfKjM9kAOEMCihiZasA-91" value="&lt;font style=&quot;color: rgb(126, 166, 224);&quot;&gt;&lt;span style=&quot;font-size: 15px; text-wrap-mode: wrap; background-color: rgb(27, 29, 30);&quot;&gt;市價 買&lt;/span&gt;&lt;/font&gt;&lt;div&gt;&lt;font style=&quot;color: rgb(126, 166, 224);&quot;&gt;&lt;span style=&quot;font-size: 15px;&quot;&gt;單撮合&lt;/span&gt;&lt;/font&gt;&lt;/div&gt;" style="edgeLabel;html=1;align=center;verticalAlign=middle;resizable=0;points=[];" vertex="1" connectable="0" parent="nDfKjM9kAOEMCihiZasA-90">
          <mxGeometry x="-0.4788" relative="1" as="geometry">
            <mxPoint x="-7" y="-5" as="offset" />
          </mxGeometry>
        </mxCell>
        <mxCell id="nDfKjM9kAOEMCihiZasA-94" value="" style="endArrow=classic;html=1;rounded=0;fillColor=#1ba1e2;strokeColor=#006EAF;strokeWidth=3;entryX=0.5;entryY=0;entryDx=0;entryDy=0;exitX=0.161;exitY=1.013;exitDx=0;exitDy=0;exitPerimeter=0;" edge="1" parent="1" source="nDfKjM9kAOEMCihiZasA-89" target="nDfKjM9kAOEMCihiZasA-96">
          <mxGeometry width="50" height="50" relative="1" as="geometry">
            <mxPoint x="2278.75" y="730" as="sourcePoint" />
            <mxPoint x="2278.75" y="780" as="targetPoint" />
            <Array as="points" />
          </mxGeometry>
        </mxCell>
        <mxCell id="nDfKjM9kAOEMCihiZasA-95" value="&lt;font style=&quot;font-size: 16px; color: rgb(126, 166, 224);&quot;&gt;&lt;span style=&quot;font-size: 15px; text-wrap-mode: wrap; background-color: rgb(27, 29, 30);&quot;&gt;市價 買 單&lt;/span&gt;當下全部撮合完成&lt;/font&gt;" style="edgeLabel;html=1;align=center;verticalAlign=middle;resizable=0;points=[];" vertex="1" connectable="0" parent="nDfKjM9kAOEMCihiZasA-94">
          <mxGeometry x="-0.2174" relative="1" as="geometry">
            <mxPoint as="offset" />
          </mxGeometry>
        </mxCell>
        <mxCell id="nDfKjM9kAOEMCihiZasA-96" value="&lt;div&gt;&lt;font style=&quot;font-size: 15px; color: rgb(126, 166, 224);&quot;&gt;買 單全部撮合完成&lt;/font&gt;&lt;/div&gt;&lt;div&gt;&lt;font style=&quot;font-size: 15px; color: rgb(126, 166, 224);&quot;&gt;所有&amp;nbsp;&lt;span style=&quot;background-color: transparent;&quot;&gt;amount(買入或賣出量) 接消耗完畢&lt;/span&gt;&lt;/font&gt;&lt;/div&gt;&lt;div&gt;&lt;span style=&quot;background-color: transparent;&quot;&gt;&lt;font style=&quot;font-size: 15px; color: rgb(126, 166, 224);&quot;&gt;&lt;br&gt;&lt;/font&gt;&lt;/span&gt;&lt;/div&gt;&lt;div&gt;&lt;span style=&quot;background-color: transparent;&quot;&gt;&lt;font style=&quot;font-size: 15px; color: rgb(126, 166, 224);&quot;&gt;&lt;br&gt;&lt;/font&gt;&lt;/span&gt;&lt;/div&gt;&lt;div&gt;&lt;div&gt;&lt;font style=&quot;font-size: 15px; color: rgb(126, 166, 224);&quot;&gt;更新訂單&amp;nbsp;&lt;span style=&quot;background-color: transparent;&quot;&gt;ExchangeOrder&amp;nbsp;&lt;/span&gt;&lt;span style=&quot;background-color: transparent;&quot;&gt;：&lt;/span&gt;&lt;/font&gt;&lt;/div&gt;&lt;/div&gt;&lt;div&gt;&lt;span style=&quot;background-color: transparent;&quot;&gt;&lt;font style=&quot;font-size: 15px; color: rgb(126, 166, 224);&quot;&gt;&lt;br&gt;&lt;/font&gt;&lt;/span&gt;&lt;/div&gt;&lt;div&gt;&lt;div&gt;&lt;font style=&quot;font-size: 15px; color: rgb(126, 166, 224);&quot;&gt;Status =&amp;nbsp;COMPLETED(全部成交)&lt;/font&gt;&lt;/div&gt;&lt;/div&gt;&lt;div&gt;&lt;br&gt;&lt;/div&gt;" style="rounded=0;whiteSpace=wrap;html=1;" vertex="1" parent="1">
          <mxGeometry x="2410" y="1100" width="250" height="220" as="geometry" />
        </mxCell>
        <mxCell id="nDfKjM9kAOEMCihiZasA-101" value="&lt;div&gt;&lt;font style=&quot;font-size: 15px; color: rgb(126, 166, 224);&quot;&gt;&lt;br&gt;&lt;/font&gt;&lt;/div&gt;&lt;div&gt;&lt;font style=&quot;font-size: 15px; color: rgb(126, 166, 224);&quot;&gt;買 單取消&lt;/font&gt;&lt;/div&gt;&lt;div&gt;&lt;font style=&quot;font-size: 15px; color: rgb(126, 166, 224);&quot;&gt;結算剩餘:&lt;/font&gt;&lt;/div&gt;&lt;div&gt;&lt;div&gt;&lt;font style=&quot;font-size: 15px; color: rgb(126, 166, 224);&quot;&gt;amount(買入或賣出量):&lt;/font&gt;&lt;/div&gt;&lt;div&gt;&lt;font style=&quot;font-size: 15px; color: rgb(126, 166, 224);&quot;&gt;TradedAmount(成交量):&lt;/font&gt;&lt;/div&gt;&lt;div&gt;&lt;font style=&quot;font-size: 15px; color: rgb(126, 166, 224);&quot;&gt;Turnover(成交額):&lt;/font&gt;&lt;/div&gt;&lt;/div&gt;&lt;div&gt;&lt;span style=&quot;background-color: transparent;&quot;&gt;&lt;font style=&quot;font-size: 15px; color: rgb(126, 166, 224);&quot;&gt;&lt;br&gt;&lt;/font&gt;&lt;/span&gt;&lt;/div&gt;&lt;div&gt;&lt;span style=&quot;background-color: transparent;&quot;&gt;&lt;font style=&quot;font-size: 15px; color: rgb(126, 166, 224);&quot;&gt;&lt;br&gt;&lt;/font&gt;&lt;/span&gt;&lt;/div&gt;&lt;div&gt;&lt;div&gt;&lt;font style=&quot;font-size: 15px; color: rgb(126, 166, 224);&quot;&gt;更新訂單&amp;nbsp;&lt;span style=&quot;background-color: transparent;&quot;&gt;ExchangeOrder&amp;nbsp;&lt;/span&gt;&lt;span style=&quot;background-color: transparent;&quot;&gt;：&lt;/span&gt;&lt;/font&gt;&lt;/div&gt;&lt;/div&gt;&lt;div&gt;&lt;span style=&quot;background-color: transparent;&quot;&gt;&lt;font style=&quot;font-size: 15px; color: rgb(126, 166, 224);&quot;&gt;&lt;br&gt;&lt;/font&gt;&lt;/span&gt;&lt;/div&gt;&lt;div&gt;&lt;div&gt;&lt;font style=&quot;font-size: 15px; color: rgb(126, 166, 224);&quot;&gt;Status =&amp;nbsp;COMPLETED(部分成交)&lt;/font&gt;&lt;/div&gt;&lt;/div&gt;&lt;div&gt;&lt;br&gt;&lt;/div&gt;" style="rounded=0;whiteSpace=wrap;html=1;" vertex="1" parent="1">
          <mxGeometry x="2080" y="1100" width="245" height="220" as="geometry" />
        </mxCell>
        <mxCell id="nDfKjM9kAOEMCihiZasA-102" value="" style="endArrow=classic;html=1;rounded=0;exitX=-0.009;exitY=0.779;exitDx=0;exitDy=0;fillColor=#1ba1e2;strokeColor=#006EAF;strokeWidth=3;entryX=0.5;entryY=0;entryDx=0;entryDy=0;exitPerimeter=0;" edge="1" parent="1" source="nDfKjM9kAOEMCihiZasA-89" target="nDfKjM9kAOEMCihiZasA-101">
          <mxGeometry width="50" height="50" relative="1" as="geometry">
            <mxPoint x="2718.75" y="510" as="sourcePoint" />
            <mxPoint x="2718.75" y="560" as="targetPoint" />
            <Array as="points" />
          </mxGeometry>
        </mxCell>
        <mxCell id="nDfKjM9kAOEMCihiZasA-103" value="&lt;font style=&quot;color: rgb(126, 166, 224);&quot;&gt;&lt;span style=&quot;font-size: 15px; text-wrap-mode: wrap; background-color: rgb(27, 29, 30);&quot;&gt;市價 買 單&lt;/span&gt;&lt;span style=&quot;font-size: 15px;&quot;&gt;剩餘尚未撮合完&lt;/span&gt;&lt;/font&gt;" style="edgeLabel;html=1;align=center;verticalAlign=middle;resizable=0;points=[];" vertex="1" connectable="0" parent="nDfKjM9kAOEMCihiZasA-102">
          <mxGeometry x="-0.0347" y="-3" relative="1" as="geometry">
            <mxPoint as="offset" />
          </mxGeometry>
        </mxCell>
        <mxCell id="nDfKjM9kAOEMCihiZasA-104" value="" style="endArrow=classic;html=1;rounded=0;exitX=0.5;exitY=1;exitDx=0;exitDy=0;fillColor=#60a917;strokeColor=#2D7600;strokeWidth=3;entryX=0.5;entryY=0;entryDx=0;entryDy=0;entryPerimeter=0;" edge="1" parent="1" source="nDfKjM9kAOEMCihiZasA-83" target="nDfKjM9kAOEMCihiZasA-105">
          <mxGeometry width="50" height="50" relative="1" as="geometry">
            <mxPoint x="3018.75" y="130" as="sourcePoint" />
            <mxPoint x="2863.75" y="390" as="targetPoint" />
          </mxGeometry>
        </mxCell>
        <mxCell id="nDfKjM9kAOEMCihiZasA-105" value="&lt;font style=&quot;font-size: 16px; color: rgb(151, 208, 119);&quot;&gt;創建訂單:ExchangeOrder&amp;nbsp;&lt;/font&gt;&lt;div&gt;&lt;font style=&quot;font-size: 16px; color: rgb(151, 208, 119);&quot;&gt;訂單狀態Status =&amp;nbsp;TRADING&lt;/font&gt;&lt;/div&gt;" style="rounded=0;whiteSpace=wrap;html=1;" vertex="1" parent="1">
          <mxGeometry x="3108.75" y="180" width="160" height="100" as="geometry" />
        </mxCell>
        <mxCell id="nDfKjM9kAOEMCihiZasA-106" value="" style="endArrow=classic;html=1;rounded=0;exitX=0.592;exitY=0.986;exitDx=0;exitDy=0;fillColor=#60a917;strokeColor=#2D7600;strokeWidth=3;exitPerimeter=0;" edge="1" parent="1" source="nDfKjM9kAOEMCihiZasA-81">
          <mxGeometry width="50" height="50" relative="1" as="geometry">
            <mxPoint x="3028.75" y="584" as="sourcePoint" />
            <mxPoint x="2780" y="676" as="targetPoint" />
          </mxGeometry>
        </mxCell>
        <mxCell id="nDfKjM9kAOEMCihiZasA-107" value="&lt;font style=&quot;color: rgb(151, 208, 119);&quot;&gt;&lt;span style=&quot;font-size: 15px; text-wrap-mode: wrap; background-color: rgb(27, 29, 30);&quot;&gt;市價 賣 單&lt;/span&gt;&lt;span style=&quot;font-size: 15px;&quot;&gt;撮合&lt;/span&gt;&lt;/font&gt;" style="edgeLabel;html=1;align=center;verticalAlign=middle;resizable=0;points=[];" vertex="1" connectable="0" parent="nDfKjM9kAOEMCihiZasA-106">
          <mxGeometry x="-0.4148" y="4" relative="1" as="geometry">
            <mxPoint x="-1" as="offset" />
          </mxGeometry>
        </mxCell>
        <mxCell id="nDfKjM9kAOEMCihiZasA-112" value="&lt;div&gt;&lt;font style=&quot;font-size: 15px; color: rgb(151, 208, 119);&quot;&gt;賣 單全部撮合完成&lt;/font&gt;&lt;/div&gt;&lt;div&gt;&lt;font style=&quot;font-size: 15px; color: rgb(151, 208, 119);&quot;&gt;所有&amp;nbsp;&lt;span style=&quot;background-color: transparent;&quot;&gt;amount(買入或賣出量) 接消耗完畢&lt;/span&gt;&lt;/font&gt;&lt;/div&gt;&lt;div&gt;&lt;span style=&quot;background-color: transparent;&quot;&gt;&lt;font style=&quot;font-size: 15px; color: rgb(151, 208, 119);&quot;&gt;&lt;br&gt;&lt;/font&gt;&lt;/span&gt;&lt;/div&gt;&lt;div&gt;&lt;span style=&quot;background-color: transparent;&quot;&gt;&lt;font style=&quot;font-size: 15px; color: rgb(151, 208, 119);&quot;&gt;&lt;br&gt;&lt;/font&gt;&lt;/span&gt;&lt;/div&gt;&lt;div&gt;&lt;div&gt;&lt;font style=&quot;font-size: 15px; color: rgb(151, 208, 119);&quot;&gt;更新訂單&amp;nbsp;&lt;span style=&quot;background-color: transparent;&quot;&gt;ExchangeOrder&amp;nbsp;&lt;/span&gt;&lt;span style=&quot;background-color: transparent;&quot;&gt;：&lt;/span&gt;&lt;/font&gt;&lt;/div&gt;&lt;/div&gt;&lt;div&gt;&lt;span style=&quot;background-color: transparent;&quot;&gt;&lt;font style=&quot;font-size: 15px; color: rgb(151, 208, 119);&quot;&gt;&lt;br&gt;&lt;/font&gt;&lt;/span&gt;&lt;/div&gt;&lt;div&gt;&lt;div&gt;&lt;font style=&quot;font-size: 15px; color: rgb(151, 208, 119);&quot;&gt;Status =&amp;nbsp;COMPLETED(部分成交)&lt;/font&gt;&lt;/div&gt;&lt;/div&gt;&lt;div&gt;&lt;br&gt;&lt;/div&gt;" style="rounded=0;whiteSpace=wrap;html=1;" vertex="1" parent="1">
          <mxGeometry x="2830" y="1100" width="240" height="220" as="geometry" />
        </mxCell>
        <mxCell id="nDfKjM9kAOEMCihiZasA-113" value="" style="endArrow=classic;html=1;rounded=0;exitX=0.732;exitY=1.002;exitDx=0;exitDy=0;fillColor=#60a917;strokeColor=#2D7600;strokeWidth=3;entryX=0.453;entryY=0.013;entryDx=0;entryDy=0;entryPerimeter=0;exitPerimeter=0;" edge="1" parent="1" source="nDfKjM9kAOEMCihiZasA-89" target="nDfKjM9kAOEMCihiZasA-112">
          <mxGeometry width="50" height="50" relative="1" as="geometry">
            <mxPoint x="2388.75" y="1000" as="sourcePoint" />
            <mxPoint x="2388.75" y="1070" as="targetPoint" />
          </mxGeometry>
        </mxCell>
        <mxCell id="nDfKjM9kAOEMCihiZasA-114" value="&lt;font style=&quot;color: rgb(151, 208, 119);&quot;&gt;&lt;span style=&quot;font-size: 15px; text-wrap-mode: wrap; background-color: rgb(27, 29, 30);&quot;&gt;市價 賣 單&lt;/span&gt;&lt;span style=&quot;font-size: 16px;&quot;&gt;當下全部撮合完成&lt;/span&gt;&lt;/font&gt;" style="edgeLabel;html=1;align=center;verticalAlign=middle;resizable=0;points=[];" vertex="1" connectable="0" parent="nDfKjM9kAOEMCihiZasA-113">
          <mxGeometry x="-0.0898" y="-5" relative="1" as="geometry">
            <mxPoint as="offset" />
          </mxGeometry>
        </mxCell>
        <mxCell id="nDfKjM9kAOEMCihiZasA-117" value="" style="endArrow=classic;html=1;rounded=0;fillColor=#60a917;strokeColor=#2D7600;strokeWidth=3;entryX=0.5;entryY=0;entryDx=0;entryDy=0;" edge="1" parent="1" source="nDfKjM9kAOEMCihiZasA-89" target="nDfKjM9kAOEMCihiZasA-119">
          <mxGeometry width="50" height="50" relative="1" as="geometry">
            <mxPoint x="2247.75" y="670" as="sourcePoint" />
            <mxPoint x="2239.75" y="1180" as="targetPoint" />
          </mxGeometry>
        </mxCell>
        <mxCell id="nDfKjM9kAOEMCihiZasA-118" value="&lt;font style=&quot;color: rgb(151, 208, 119);&quot;&gt;&lt;span style=&quot;font-size: 15px; text-wrap-mode: wrap; background-color: rgb(27, 29, 30);&quot;&gt;市價 賣 單&lt;/span&gt;&lt;span style=&quot;font-size: 15px;&quot;&gt;尚未撮合完&lt;/span&gt;&lt;/font&gt;" style="edgeLabel;html=1;align=center;verticalAlign=middle;resizable=0;points=[];" vertex="1" connectable="0" parent="nDfKjM9kAOEMCihiZasA-117">
          <mxGeometry x="-0.06" y="-3" relative="1" as="geometry">
            <mxPoint as="offset" />
          </mxGeometry>
        </mxCell>
        <mxCell id="nDfKjM9kAOEMCihiZasA-119" value="&lt;div&gt;&lt;font style=&quot;font-size: 15px; color: rgb(151, 208, 119);&quot;&gt;&lt;br&gt;&lt;/font&gt;&lt;/div&gt;&lt;div&gt;&lt;font style=&quot;font-size: 15px; color: rgb(151, 208, 119);&quot;&gt;賣 單取消&lt;/font&gt;&lt;/div&gt;&lt;div&gt;&lt;font style=&quot;font-size: 15px; color: rgb(151, 208, 119);&quot;&gt;結算剩餘:&lt;/font&gt;&lt;/div&gt;&lt;div&gt;&lt;div&gt;&lt;font style=&quot;font-size: 15px; color: rgb(151, 208, 119);&quot;&gt;amount(買入或賣出量):&lt;/font&gt;&lt;/div&gt;&lt;div&gt;&lt;font style=&quot;font-size: 15px; color: rgb(151, 208, 119);&quot;&gt;TradedAmount(成交量):&lt;/font&gt;&lt;/div&gt;&lt;div&gt;&lt;font style=&quot;font-size: 15px; color: rgb(151, 208, 119);&quot;&gt;Turnover(成交額):&lt;/font&gt;&lt;/div&gt;&lt;/div&gt;&lt;div&gt;&lt;span style=&quot;background-color: transparent;&quot;&gt;&lt;font style=&quot;font-size: 15px; color: rgb(151, 208, 119);&quot;&gt;&lt;br&gt;&lt;/font&gt;&lt;/span&gt;&lt;/div&gt;&lt;div&gt;&lt;span style=&quot;background-color: transparent;&quot;&gt;&lt;font style=&quot;font-size: 15px; color: rgb(151, 208, 119);&quot;&gt;&lt;br&gt;&lt;/font&gt;&lt;/span&gt;&lt;/div&gt;&lt;div&gt;&lt;div&gt;&lt;font style=&quot;font-size: 15px; color: rgb(151, 208, 119);&quot;&gt;更新訂單&amp;nbsp;&lt;span style=&quot;background-color: transparent;&quot;&gt;ExchangeOrder&amp;nbsp;&lt;/span&gt;&lt;span style=&quot;background-color: transparent;&quot;&gt;：&lt;/span&gt;&lt;/font&gt;&lt;/div&gt;&lt;/div&gt;&lt;div&gt;&lt;span style=&quot;background-color: transparent;&quot;&gt;&lt;font style=&quot;font-size: 15px; color: rgb(151, 208, 119);&quot;&gt;&lt;br&gt;&lt;/font&gt;&lt;/span&gt;&lt;/div&gt;&lt;div&gt;&lt;div&gt;&lt;font style=&quot;font-size: 15px; color: rgb(151, 208, 119);&quot;&gt;Status =&amp;nbsp;COMPLETED(部分取消)&lt;/font&gt;&lt;/div&gt;&lt;/div&gt;&lt;div&gt;&lt;br&gt;&lt;/div&gt;" style="rounded=0;whiteSpace=wrap;html=1;" vertex="1" parent="1">
          <mxGeometry x="3140" y="1100" width="240" height="220" as="geometry" />
        </mxCell>
        <mxCell id="nDfKjM9kAOEMCihiZasA-126" value="&lt;font style=&quot;font-size: 17px;&quot;&gt;市價單同樣到限價單裡撮合&amp;nbsp;&lt;/font&gt;&lt;div&gt;&lt;font style=&quot;font-size: 17px;&quot;&gt;有剩餘直接結算&lt;/font&gt;&lt;/div&gt;" style="text;html=1;align=center;verticalAlign=middle;whiteSpace=wrap;rounded=0;" vertex="1" parent="1">
          <mxGeometry x="2675.63" y="380" width="140" height="110" as="geometry" />
        </mxCell>
        <mxCell id="nDfKjM9kAOEMCihiZasA-127" value="" style="endArrow=none;dashed=1;html=1;dashPattern=1 3;strokeWidth=2;rounded=0;exitX=1;exitY=0.5;exitDx=0;exitDy=0;exitPerimeter=0;entryX=0;entryY=0.5;entryDx=0;entryDy=0;" edge="1" parent="1" source="nDfKjM9kAOEMCihiZasA-80" target="nDfKjM9kAOEMCihiZasA-126">
          <mxGeometry width="50" height="50" relative="1" as="geometry">
            <mxPoint x="2690" y="370" as="sourcePoint" />
            <mxPoint x="2740" y="320" as="targetPoint" />
          </mxGeometry>
        </mxCell>
        <mxCell id="nDfKjM9kAOEMCihiZasA-128" value="" style="endArrow=none;dashed=1;html=1;dashPattern=1 3;strokeWidth=2;rounded=0;exitX=1;exitY=0.5;exitDx=0;exitDy=0;entryX=0;entryY=0.5;entryDx=0;entryDy=0;entryPerimeter=0;" edge="1" parent="1" source="nDfKjM9kAOEMCihiZasA-126" target="nDfKjM9kAOEMCihiZasA-81">
          <mxGeometry width="50" height="50" relative="1" as="geometry">
            <mxPoint x="2680" y="335" as="sourcePoint" />
            <mxPoint x="2926" y="330" as="targetPoint" />
          </mxGeometry>
        </mxCell>
      </root>
    </mxGraphModel>
  </diagram>
</mxfile>
